<?xml version="1.0" encoding="utf-8"?>
<!-- Generator: Adobe Illustrator 26.3.1, SVG Export Plug-In . SVG Version: 6.00 Build 0)  -->
<svg version="1.1" id="Calque_1" xmlns="http://www.w3.org/2000/svg" xmlns:xlink="http://www.w3.org/1999/xlink" x="0px" y="0px"
	 viewBox="0 0 300 153.1" style="enable-background:new 0 0 300 153.1;" xml:space="preserve">
<style type="text/css">
	.st0{fill:#FFFFFF;}
</style>
<g id="_x37_e319840-739a-a0f1-f316-ea813584ba79" transform="matrix(2.8,0,0,2.8,30.62199562788011,167.12059412002563)">
	<path class="st0" d="M5.4-14L5.4-14c-1.5,0-2.7-0.5-3.6-1.5l0,0l0,0c-1-1-1.5-2.2-1.5-3.7l0,0l0,0c0-1.4,0.5-2.7,1.5-3.6l0,0l0,0
		c1-1,2.2-1.5,3.6-1.5l0,0l0,0c1.5,0,2.7,0.5,3.8,1.4l0,0l-1.4,1.5l0,0c-0.7-0.6-1.5-0.8-2.4-0.8l0,0l0,0c-0.9,0-1.7,0.3-2.2,0.9
		l0,0l0,0c-0.6,0.5-0.9,1.2-0.9,2.1l0,0l0,0c0,1,0.3,1.7,0.9,2.3l0,0l0,0c0.6,0.6,1.3,0.8,2.2,0.8l0,0l0,0c0.7,0,1.3-0.1,1.7-0.4
		l0,0v-1.8H5.7v-1.9h3.4v4.8l0,0C8.1-14.5,6.9-14,5.4-14L5.4-14z M12.8-20.9v0.8l0,0c0.5-0.5,1.1-0.8,1.8-0.8l0,0l0,0
		c0.2,0,0.4,0,0.6,0l0,0l-0.2,2l0,0c-0.2-0.2-0.5-0.3-0.9-0.3l0,0l0,0c-0.5,0-0.9,0.4-1.2,1l0,0v4.2H11v-6.7L12.8-20.9z M19.6-14
		L19.6-14c-1,0-1.8-0.3-2.5-1l0,0l0,0c-0.7-0.7-1-1.5-1-2.5l0,0l0,0c0-1,0.3-1.8,1-2.5l0,0l0,0c0.7-0.7,1.5-1,2.5-1l0,0l0,0
		c1,0,1.8,0.3,2.5,1l0,0l0,0c0.7,0.7,1,1.5,1,2.5l0,0l0,0c0,1-0.3,1.8-1,2.5l0,0l0,0C21.4-14.3,20.6-14,19.6-14L19.6-14z M19.6-15.6
		L19.6-15.6L19.6-15.6c0.5,0,0.9-0.2,1.3-0.5l0,0l0,0c0.3-0.3,0.5-0.8,0.5-1.3l0,0l0,0c0-0.5-0.2-1-0.5-1.3l0,0l0,0
		c-0.3-0.4-0.8-0.5-1.3-0.5l0,0l0,0c-0.5,0-0.9,0.2-1.3,0.5l0,0l0,0c-0.3,0.3-0.5,0.8-0.5,1.3l0,0l0,0c0,0.5,0.2,1,0.5,1.3l0,0l0,0
		C18.7-15.8,19.1-15.6,19.6-15.6z M28.5-16.5L28.5-16.5v-4.4h1.9v6.8h-1.9v-0.6l0,0c-0.5,0.4-1,0.6-1.6,0.6l0,0l0,0
		c-0.9,0-1.5-0.3-2-0.8l0,0l0,0c-0.5-0.5-0.7-1.1-0.7-1.8l0,0v-4.2h1.9v3.8l0,0c0,0.5,0.1,0.8,0.3,1.1l0,0l0,0
		c0.2,0.3,0.6,0.4,1,0.4l0,0l0,0C27.9-15.7,28.2-15.9,28.5-16.5z M34-11.1h-1.9v-9.6l1.9-0.2v0.6l0,0c0.5-0.4,1-0.6,1.5-0.6l0,0l0,0
		c1,0,1.9,0.3,2.5,1l0,0l0,0c0.6,0.7,0.9,1.5,0.9,2.4l0,0l0,0c0,0.9-0.3,1.7-0.9,2.4l0,0l0,0c-0.6,0.7-1.4,1-2.5,1l0,0l0,0
		c-0.7,0-1.2-0.2-1.5-0.6l0,0V-11.1z M34-18.1L34-18.1v1.1l0,0c0.1,0.8,0.6,1.2,1.4,1.4l0,0l0,0c1.1-0.1,1.7-0.7,1.8-1.7l0,0l0,0
		c0-1.3-0.7-1.9-1.8-2l0,0l0,0C34.5-19.2,34.1-18.7,34-18.1z M43.3-14L43.3-14c-1,0-1.8-0.3-2.5-1l0,0l0,0c-0.7-0.7-1-1.5-1-2.5l0,0
		l0,0c0-1,0.3-1.8,1-2.5l0,0l0,0c0.7-0.7,1.5-1,2.5-1l0,0l0,0c1,0,1.8,0.3,2.5,1l0,0l0,0c0.7,0.7,1,1.5,1,2.5l0,0l0,0
		c0,1-0.3,1.8-1,2.5l0,0l0,0C45.2-14.3,44.3-14,43.3-14L43.3-14z M43.3-15.6L43.3-15.6L43.3-15.6c0.5,0,0.9-0.2,1.3-0.5l0,0l0,0
		c0.3-0.3,0.5-0.8,0.5-1.3l0,0l0,0c0-0.5-0.2-1-0.5-1.3l0,0l0,0c-0.3-0.4-0.7-0.5-1.3-0.5l0,0l0,0c-0.5,0-0.9,0.2-1.3,0.5l0,0l0,0
		c-0.3,0.3-0.5,0.8-0.5,1.3l0,0l0,0c0,0.5,0.2,1,0.5,1.3l0,0l0,0C42.4-15.8,42.8-15.6,43.3-15.6z M50-18.4L50-18.4v4.4h-1.9v-6.7
		l1.9-0.2v0.6l0,0c0.4-0.4,1-0.6,1.6-0.6l0,0l0,0c0.9,0,1.5,0.3,2,0.8l0,0l0,0c0.5-0.5,1.3-0.8,2.2-0.8l0,0l0,0c0.9,0,1.5,0.3,2,0.8
		l0,0l0,0c0.5,0.5,0.7,1.1,0.7,1.8l0,0v4.2h-1.9v-3.7l0,0c0-0.5-0.1-0.8-0.3-1.1l0,0l0,0c-0.2-0.2-0.5-0.4-1-0.4l0,0l0,0
		c-0.4,0-0.7,0.3-1,0.8l0,0l0,0c0,0.1,0,0.3,0,0.4l0,0v4h-1.9v-3.7l0,0c0-0.5-0.1-0.8-0.3-1.1l0,0l0,0c-0.2-0.2-0.5-0.4-1-0.4l0,0
		l0,0C50.7-19.2,50.3-18.9,50-18.4z M61.1-18.9l-0.8-1.2l0,0c0.9-0.5,1.9-0.8,3-0.8l0,0l0,0c0.8,0,1.5,0.2,1.9,0.7l0,0l0,0
		c0.5,0.5,0.7,1.1,0.7,2l0,0v4.1H64v-0.5l0,0c-0.6,0.4-1.1,0.5-1.5,0.5l0,0l0,0c-0.9,0-1.6-0.2-2-0.6l0,0l0,0
		c-0.5-0.4-0.7-0.9-0.7-1.6l0,0l0,0c0-0.6,0.2-1.2,0.7-1.7l0,0l0,0c0.5-0.4,1.2-0.7,2.1-0.7l0,0l0,0c0.4,0,1,0.1,1.5,0.4l0,0v-0.2
		l0,0c0-0.5-0.4-0.8-1.1-0.8l0,0l0,0C62.2-19.3,61.6-19.2,61.1-18.9L61.1-18.9z M64.2-16.1L64.2-16.1v-0.7l0,0
		c-0.2-0.4-0.6-0.5-1.3-0.5l0,0l0,0c-0.8,0.1-1.3,0.4-1.3,1l0,0l0,0c0,0.5,0.5,0.8,1.3,0.9l0,0l0,0C63.5-15.5,64-15.7,64.2-16.1z
		 M69.7-18.4L69.7-18.4v4.3h-1.9v-6.6l1.9-0.2v0.6l0,0c0.5-0.4,1-0.6,1.6-0.6l0,0l0,0c0.9,0,1.5,0.3,2,0.8l0,0l0,0
		c0.5,0.5,0.7,1.2,0.7,1.8l0,0v4.2h-1.9v-3.7l0,0c0-0.5-0.1-0.8-0.3-1.1l0,0l0,0c-0.2-0.2-0.6-0.4-1-0.4l0,0l0,0
		C70.3-19.2,70-18.9,69.7-18.4z M77.5-14h-1.9v-6.9h1.9V-14z M75.5-22.5L75.5-22.5L75.5-22.5c0,0.3,0.1,0.5,0.3,0.7l0,0l0,0
		c0.2,0.2,0.4,0.3,0.8,0.3l0,0l0,0c0.3,0,0.6-0.1,0.8-0.3l0,0l0,0c0.2-0.2,0.3-0.4,0.3-0.7l0,0l0,0c0-0.3-0.1-0.5-0.3-0.7l0,0l0,0
		c-0.2-0.2-0.4-0.3-0.8-0.3l0,0l0,0c-0.3,0-0.6,0.1-0.7,0.3l0,0l0,0C75.6-23,75.5-22.8,75.5-22.5z M80.1-18.9l-0.8-1.2l0,0
		c0.9-0.5,1.9-0.8,3-0.8l0,0l0,0c0.8,0,1.5,0.2,1.9,0.7l0,0l0,0c0.5,0.5,0.8,1.2,0.8,2.1l0,0v4.1h-1.9v-0.5l0,0
		C82.5-14.1,82-14,81.6-14l0,0l0,0c-0.9,0-1.6-0.2-2.1-0.6l0,0l0,0c-0.5-0.4-0.7-0.9-0.7-1.6l0,0l0,0c0-0.6,0.2-1.2,0.7-1.7l0,0l0,0
		c0.4-0.5,1.1-0.8,2.1-0.8l0,0l0,0c0.4,0,0.9,0.1,1.5,0.4l0,0v-0.2l0,0c0-0.5-0.4-0.8-1.1-0.8l0,0l0,0
		C81.2-19.3,80.5-19.2,80.1-18.9L80.1-18.9z M83.1-16.1L83.1-16.1v-0.7l0,0c-0.2-0.4-0.6-0.5-1.3-0.5l0,0l0,0
		c-0.8,0.1-1.3,0.4-1.3,1l0,0l0,0c0,0.5,0.5,0.8,1.3,0.9l0,0l0,0C82.5-15.5,82.9-15.7,83.1-16.1z"/>
</g>
<g id="_x34_cb061db-73fa-16fe-1d0a-15980590225e" transform="matrix(0.2931737713407769,0,0,0.2931737713407769,106.0239289062273,82.12728504171139)">
	<g>
		<path class="st0" d="M150,20.5c33.6,0,65.1-12.9,88.8-36.6s36.6-55.2,36.6-88.8s-12.9-65.1-36.6-88.8s-55.2-36.6-88.8-36.6
			s-65.1,12.9-88.8,36.6s-36.6,55.2-36.6,88.8s12.9,65.1,36.6,88.8S116.4,20.5,150,20.5z M157.2-0.8c-2.4,0.3-4.8,0.3-7.2,0.3
			c-3.3,0-6.6-0.3-9.9-0.6c-10.8-16.8-18.9-34.8-23.7-53.7h53.1c1.8,4.5,5.1,8.7,9,11.4C173.4-28.4,166.2-14.3,157.2-0.8z
			 M185.7-6.8c5.7-10.5,10.2-21,13.8-32.1c8.7-1.8,15.6-7.8,18.9-15.9h23.1C229.5-32.9,209.4-15.8,185.7-6.8z M254.1-104.9
			c0,9.9-1.5,19.5-3.9,28.8h-32.4c-1.8-3.9-4.8-7.5-8.4-10.2c0.6-6.6,0.9-13.2,0.9-19.8c0-9.3-0.6-18.6-1.8-27.6h41.4
			C252.9-124.7,254.1-114.8,254.1-104.9z M241.5-155h-36.6c-3.9-16.5-9.6-32.1-17.4-47.1C210.3-193.4,229.5-176.3,241.5-155z
			 M189.3-106.1c0,5.1-0.3,10.2-0.6,15.3c-8.4,1.8-15.3,7.2-18.6,14.7h-57.9c-1.2-9-2.1-18.3-2.1-27.3c0-5.7,0.3-11.4,0.9-17.1
			c7.8-1.5,14.1-6.6,18-13.2h58.5C188.7-124.7,189.3-115.4,189.3-106.1L189.3-106.1z M142.2-208.7c2.7-0.3,5.4-0.3,7.8-0.3
			c3,0,6,0,9,0.3c10.8,16.8,18.9,34.8,23.7,53.7h-52.2c-1.8-5.1-5.1-9.6-9.3-12.9C126.6-182.3,133.5-195.8,142.2-208.7L142.2-208.7z
			 M113.7-202.7c-5.1,9.6-9.6,19.8-13.2,30c-9.3,1.8-16.8,8.7-19.8,17.4H58.8C70.5-176.6,90-193.7,113.7-202.7z M45.9-104.9
			c0-9.9,1.5-19.8,4.2-28.8h32.7c1.8,3.3,4.5,6.3,7.5,8.7c-0.6,7.2-1.2,14.4-1.2,21.6c0,9.3,0.6,18.3,1.8,27.3H50.1
			C47.1-85.4,45.9-95,45.9-104.9z M94.5-55.1C98.4-38.9,104.1-23,111.9-8c-22.8-9-41.7-25.8-53.4-47.1
			C58.5-55.1,94.5-55.1,94.5-55.1z"/>
	</g>
</g>
</svg>
